<?xml version="1.0" encoding="utf-8"?>
<!-- Generator: Adobe Illustrator 15.0.0, SVG Export Plug-In . SVG Version: 6.00 Build 0)  -->
<!DOCTYPE svg PUBLIC "-//W3C//DTD SVG 1.1//EN" "http://www.w3.org/Graphics/SVG/1.1/DTD/svg11.dtd">
<svg version="1.1" id="Layer_1" xmlns="http://www.w3.org/2000/svg" xmlns:xlink="http://www.w3.org/1999/xlink" x="0px" y="0px"
	 width="247.338px" height="113.65px" viewBox="24.148 18.934 247.338 113.65"
	 enable-background="new 24.148 18.934 247.338 113.65" xml:space="preserve">
<path fill="#577185" d="M80.968,18.934h-56.82v56.82c0,31.391,25.431,56.83,56.82,56.83c31.38,0,56.82-25.439,56.82-56.83
	C137.788,44.374,112.348,18.934,80.968,18.934z M70.178,103.673h-7.27V58.363h-0.15c-1.63,2.16-3.1,3.551-6.03,5.801v-7.271
	c1.771-1.319,5.95-6.569,6.95-9.051h6.5V103.673z M105.208,90.374c0,10.05-2.32,13.76-11.53,13.76c-9.2,0-11.52-3.71-11.52-13.76
	v-29.23c0-10.051,2.319-13.761,11.52-13.761c9.21,0,11.53,3.71,11.53,13.761V90.374z"/>
<path fill="#577185" d="M93.678,52.944c-4.25,0-4.25,3.479-4.25,6.96v31.7c0,3.479,0,6.96,4.25,6.96c4.26,0,4.26-3.479,4.26-6.96
	v-31.7C97.938,56.423,97.938,52.944,93.678,52.944z"/>
<g>
	<path fill="#577185" d="M161.931,47.876h12.435c12.513,0,13.516,4.172,13.516,20.391v16.604c0,14.287-2.549,18.768-14.751,18.768
		h-11.199L161.931,47.876L161.931,47.876z M169.654,97.151h3.707c5.716,0,6.796-3.012,6.796-12.589V65.409
		c0-8.265-0.849-11.045-7.413-11.045h-3.09V97.151L169.654,97.151z"/>
	<path fill="#577185" d="M202.26,47.876h8.961l11.353,55.763h-7.724l-2.55-14.211h-12.048l-2.549,14.211h-7.723L202.26,47.876z
		 M201.411,82.94h9.81l-4.789-26.877h-0.154L201.411,82.94z"/>
	<path fill="#577185" d="M217.49,47.876h7.723l6.721,23.479h0.153l7.724-23.479h6.797l-10.734,32.9v22.861h-7.725v-22.86
		L217.49,47.876z"/>
	<path fill="#577185" d="M246.926,87.498h7.725v4.556c0,3.707,1.391,6.025,4.479,6.025c4.096,0,5.1-2.781,5.1-6.41
		c0-4.711-0.233-6.257-8.265-14.211c-4.944-4.943-9.037-9.424-9.037-16.99c0-9.115,4.249-13.054,12.666-13.054
		c4.173,0,7.183,1.392,9.037,3.089c1.312,1.235,2.24,3.168,2.24,7.105v5.251h-7.261v-4.4c0-3.167-1.312-5.021-4.326-5.021
		c-3.165,0-4.633,1.777-4.633,6.103c0,3.785,0.771,6.102,7.877,13.515c7.57,7.878,8.959,10.582,8.959,17.302
		c0,8.727-3.397,13.746-12.588,13.746c-7.106,0-11.973-3.012-11.973-9.963V87.498L246.926,87.498z"/>
</g>
</svg>
